<svg width="20" height="12" viewBox="0 0 20 12" fill="none" xmlns="http://www.w3.org/2000/svg">
<path d="M18.2702 0.410512C18.4199 0.204138 18.642 0.0665689 18.889 0.0273593C19.1359 -0.0118502 19.3879 0.0504285 19.5908 0.200815C19.7937 0.351202 19.9313 0.577698 19.9741 0.831644C20.0169 1.08559 19.9614 1.34673 19.8196 1.55895C19.1312 2.54923 18.3072 3.43122 17.3733 4.17739L19.0971 6.42439C19.4316 6.86014 19.3451 7.44026 18.9063 7.71851C18.4686 7.99808 17.8427 7.87076 17.5082 7.43633L15.8175 5.23001C15.0224 5.67902 14.1809 6.03431 13.3088 6.2892L14.0976 9.83689C14.2146 10.3671 13.894 10.8869 13.3801 10.9998C13.1313 11.0532 12.8722 11.0039 12.6582 10.8626C12.4442 10.7213 12.2923 10.4992 12.2351 10.2438L11.4426 6.67376C10.481 6.79353 9.50908 6.79485 8.54721 6.6777L7.75849 10.2438C7.7013 10.4994 7.54925 10.7218 7.33496 10.8632C7.12067 11.0045 6.86123 11.0535 6.61229 10.9998C6.4905 10.9732 6.37507 10.9219 6.27273 10.8488C6.1704 10.7757 6.08322 10.6823 6.0163 10.574C5.94937 10.4657 5.90404 10.3448 5.88296 10.2182C5.86189 10.0916 5.86548 9.962 5.89353 9.83689L6.67844 6.29708C5.80432 6.04404 4.96097 5.68913 4.16469 5.2392L2.48165 7.43633C2.14708 7.87076 1.52118 7.99808 1.0823 7.71851C0.644679 7.44026 0.560718 6.86014 0.894019 6.42439L2.60886 4.1892C1.68083 3.44837 0.862307 2.57205 0.179076 1.58782C0.0314667 1.37566 -0.0284064 1.11169 0.0126281 0.853977C0.0536626 0.596266 0.192243 0.365929 0.397884 0.213637C0.603525 0.0613447 0.859381 -0.000427903 1.10917 0.0419084C1.35895 0.0842448 1.58221 0.227222 1.72981 0.439387C5.78667 6.26689 14.2095 6.24457 18.2702 0.410512Z" fill="#E5E5E5"/>
<path d="M18.2702 0.410507C18.4178 0.198342 18.641 0.0553651 18.8908 0.0130288C19.1406 -0.0293076 19.3965 0.032465 19.6021 0.184757C19.8078 0.33705 19.9463 0.567386 19.9874 0.825096C20.0284 1.08281 19.9685 1.34678 19.8209 1.55894C19.1321 2.54931 18.3077 3.43132 17.3733 4.17738L19.0971 6.42438C19.4316 6.86013 19.3451 7.44026 18.9063 7.71851C18.4686 7.99807 17.8427 7.87076 17.5082 7.43501L15.8175 5.23001C15.0224 5.67856 14.1809 6.03341 13.3088 6.28788L14.0976 9.83688C14.2146 10.3658 13.894 10.8869 13.3801 10.9998C13.1314 11.0528 12.8724 11.0034 12.6585 10.8622C12.4446 10.7209 12.2926 10.499 12.2352 10.2438L11.4413 6.67376C10.4802 6.79342 9.50866 6.79474 8.54722 6.6777L7.75849 10.2438C7.70101 10.4993 7.54889 10.7214 7.33469 10.8627C7.12048 11.004 6.8612 11.0532 6.61229 10.9998C6.4905 10.9732 6.37507 10.9219 6.27274 10.8488C6.1704 10.7757 6.08322 10.6823 6.0163 10.574C5.94937 10.4657 5.90404 10.3448 5.88297 10.2182C5.86189 10.0916 5.86548 9.962 5.89353 9.83688L6.67971 6.29576C5.80521 6.04324 4.96143 5.68877 4.16469 5.2392L2.48165 7.43501C2.14708 7.87076 1.52118 7.99807 1.0823 7.71851C0.644679 7.44026 0.560718 6.86013 0.894019 6.42438L2.60886 4.18788C1.68083 3.44705 0.862307 2.57073 0.179076 1.58651C0.0314667 1.37434 -0.0284064 1.11037 0.0126281 0.852659C0.0536626 0.594949 0.192243 0.364612 0.397884 0.21232C0.603525 0.0600274 0.859381 -0.0017452 1.10917 0.0405911C1.35895 0.0829275 1.58221 0.225905 1.72982 0.43807C5.78794 6.26557 14.2108 6.24457 18.2702 0.410507Z" fill="#E5E5E5"/>
</svg>
